<svg version="1.1" xmlns="http://www.w3.org/2000/svg" viewBox="1.5 10 83 83" xml:space="preserve">
  <style>.st0{fill:#1e1b1d}.st1{fill:#f99e2a}.st3{fill:#484d56}</style>
  <!-- Yellow/orange geometric shape -->
  <path d="m75.36 50.79-.35-.34-1.71-1.7-11.32-11.19-5.16 5.22 11.32 11.19 1.71 1.7.35.34c6.26 6.18 6.32 16.26.13 22.51-6.18 6.25-16.26 6.31-22.51.13l-.35-.34-1.72-1.7-11.31-11.18-5.16 5.22L40.6 81.84l1.71 1.69.35.34c9.12 9.02 23.88 8.93 32.89-.2 9.02-9.11 8.93-23.87-.19-32.88" style="fill:#ffcf37"/>
  <path class="st1" d="M29.26 60.13 18 48.88l-1.71-1.7-.34-.34c-6.22-6.22-6.22-16.3 0-22.51 6.22-6.22 16.29-6.22 22.51 0l.35.34 1.7 1.7 11.26 11.26-11.26 11.25-11.25 11.25m0 10.39 5.19-5.19 11.26-11.26 11.26-11.26 5.19-5.19-5.19-5.19-11.26-11.26-1.71-1.7-.34-.34c-9.07-9.07-23.83-9.07-32.9 0s-9.07 23.83 0 32.9l.34.34 1.71 1.71 11.26 11.26 5.19 5.18z"/>
  <path class="st0" d="m48.18 23.44-5.45 5.43-5.28-5.1 5.65-5.63z"/>
  <path class="st0" d="m70.25 56.1-.34-.34-1.71-1.71-2.81-2.81-8.45 8.45-11.25-11.26-11.26-11.25 11.26-11.26 1.7-1.7.34-.35c6.22-6.22 16.3-6.22 22.51 0 6.1 6.1 6.2 15.92.32 22.16l2.82 2.82 1.71 1.7.34.34c.11.11.21.22.31.33 8.74-9.09 8.65-23.59-.31-32.55-9.07-9.07-23.83-9.07-32.9 0l-.35.34-1.7 1.7-11.24 11.28-5.19 5.19 5.19 5.19L40.5 53.63l11.26 11.26 5.19 5.19 5.19-5.19 8.43-8.43c-.11-.13-.21-.25-.32-.36"/>
  <path class="st3" d="m42.93 73.72-5.34 5.26 5.19 5.22 5.4-5.36z"/>
  <path class="st3" d="M51.74 64.89 40.46 76.17l-1.71 1.71-.34.34c-6.22 6.22-16.29 6.22-22.51 0-5.97-5.97-6.19-15.5-.68-21.76l-2.4-2.4-1.7-1.71-.35-.34c-.25-.25-.47-.52-.71-.78-8.39 9.11-8.19 23.34.65 32.17 9.07 9.07 23.83 9.07 32.9 0l.34-.34 1.71-1.7L56.9 70.11l.02-.02-5.18-5.2zM15.95 46.83l.34.34L18 48.88l2.36 2.36 8.86-8.86-5.19-5.19-.02.02-8.8 8.8c.24.28.48.55.74.82"/>
</svg>
