<svg version="1.1" id="Layer_1" xmlns="http://www.w3.org/2000/svg" x="0" y="0" viewBox="0 0 504 144" style="enable-background:new 0 0 504 144" xml:space="preserve"><style>.st0{fill:#1e1b1d}.st1{fill:#f99e2a}.st3{fill:#484d56}</style><path class="st0" d="M114.6 47.33c-4.63 0-9.3-1.61-12.97-4.89l3.97-4.76c2.75 2.27 5.63 3.71 9.13 3.71 2.75 0 4.41-1.09 4.41-2.88v-.09c0-1.7-1.05-2.57-6.15-3.89-6.16-1.57-10.13-3.27-10.13-9.34v-.09c0-5.54 4.45-9.21 10.69-9.21 4.45 0 8.25 1.4 11.35 3.88l-3.49 5.07c-2.71-1.88-5.37-3.01-7.95-3.01-2.57 0-3.93 1.18-3.93 2.66v.09c0 2.01 1.31 2.66 6.59 4.02 6.2 1.62 9.69 3.84 9.69 9.17v.09c.02 6.06-4.61 9.47-11.21 9.47M146.52 47.42c-9.43 0-16.2-7.03-16.2-15.72v-.09c0-8.69 6.85-15.8 16.28-15.8 9.43 0 16.2 7.03 16.2 15.72v.09c0 8.68-6.85 15.8-16.28 15.8m9.25-15.81c0-5.24-3.84-9.6-9.26-9.6-5.41 0-9.17 4.28-9.17 9.52v.09c0 5.24 3.84 9.6 9.26 9.6 5.41 0 9.17-4.28 9.17-9.52v-.09zM181.53 47.37c-8.21 0-13.23-4.58-13.23-13.58V16.33h6.72v17.29c0 4.98 2.49 7.55 6.59 7.55s6.59-2.49 6.59-7.33V16.33h6.72v17.25c.02 9.25-5.18 13.79-13.39 13.79M215.63 22.53v24.36h-6.72V22.53h-9.3v-6.2h25.32v6.2zM299.11 46.89l-2.79-6.85H283.4l-2.79 6.85h-6.85l13.1-30.78h6.2l13.1 30.78h-7.05zm-9.26-22.7-4.06 9.91h8.12l-4.06-9.91zM321.29 47.33c-4.63 0-9.3-1.61-12.97-4.89l3.97-4.76c2.75 2.27 5.63 3.71 9.12 3.71 2.75 0 4.41-1.09 4.41-2.88v-.09c0-1.7-1.05-2.57-6.15-3.89-6.15-1.57-10.13-3.27-10.13-9.34v-.09c0-5.54 4.45-9.21 10.7-9.21 4.45 0 8.25 1.4 11.35 3.88l-3.49 5.07c-2.71-1.88-5.37-3.01-7.95-3.01s-3.93 1.18-3.93 2.66v.09c0 2.01 1.31 2.66 6.59 4.02 6.2 1.62 9.69 3.84 9.69 9.17v.09c.01 6.06-4.62 9.47-11.21 9.47M338.67 16.33h6.72v30.56h-6.72zM408.95 46.89l-14.8-19.43v19.43h-6.63V16.33h6.2l14.32 18.82V16.33h6.63v30.56zM360.02 40.11l2.44-6.01 4.06-9.91 3.98 9.73h6.78l-7.58-17.81h-6.19l-13.1 30.78h6.85l2.77-6.78zM117.31 90c-8.99 0-15.67-6.94-15.67-15.72v-.09c0-8.69 6.55-15.8 15.93-15.8 5.76 0 9.21 1.92 12.05 4.72l-4.28 4.93c-2.36-2.14-4.76-3.45-7.81-3.45-5.15 0-8.86 4.28-8.86 9.52v.09c0 5.24 3.62 9.6 8.86 9.6 3.49 0 5.63-1.4 8.03-3.58l4.28 4.32C126.7 87.9 123.21 90 117.31 90M191.14 89.47l-14.8-19.42v19.42h-6.64V58.91h6.2l14.32 18.82V58.91h6.64v30.56zM226.94 89.47l-2.79-6.85h-12.92l-2.79 6.85h-6.85l13.1-30.78h6.2l13.1 30.78h-7.05zm-9.26-22.7-4.06 9.91h8.12l-4.06-9.91zM250.6 89.47h-11.92V58.91h11.92c9.6 0 16.24 6.59 16.24 15.19v.09c0 8.6-6.63 15.28-16.24 15.28m9.21-15.28c0-5.41-3.71-9.21-9.21-9.21h-5.2V83.4h5.2c5.5 0 9.21-3.71 9.21-9.12v-.09zM273.13 58.91h6.72v30.56h-6.72zM310.24 89.47l-2.79-6.85h-12.92l-2.79 6.85h-6.85l13.1-30.78h6.2l13.1 30.78h-7.05zm-9.25-22.7-4.06 9.91h8.12l-4.06-9.91zM343.42 89.47l-14.8-19.42v19.42h-6.63V58.91h6.2l14.31 18.82V58.91h6.64v30.56zM142.23 82.7l2.44-6.02 4.06-9.91 3.98 9.73h6.78l-7.57-17.8h-6.2l-13.1 30.77h6.85l2.77-6.77zM114.26 132.22h-11.91v-30.55h11.91c9.6 0 16.23 6.59 16.23 15.19v.09c0 8.59-6.63 15.27-16.23 15.27m9.21-15.28c0-5.41-3.71-9.21-9.21-9.21h-5.19v18.42h5.19c5.5 0 9.21-3.71 9.21-9.12v-.09zM136.77 101.67h6.72v30.55h-6.72zM165.84 132.74c-9.51 0-16.06-6.68-16.06-15.71v-.09c0-8.68 6.76-15.8 16.02-15.8 5.5 0 8.82 1.49 12 4.19l-4.23 5.11c-2.36-1.96-4.45-3.1-7.99-3.1-4.89 0-8.77 4.32-8.77 9.51v.09c0 5.59 3.84 9.69 9.25 9.69 2.44 0 4.63-.61 6.33-1.83v-4.37h-6.76v-5.8h13.27v13.27c-3.16 2.66-7.48 4.84-13.06 4.84M185.65 101.67h6.72v30.55h-6.72zM247.09 132.22l-2.79-6.85h-12.92l-2.79 6.85h-6.85l13.09-30.77h6.2l13.09 30.77h-7.03zm-9.25-22.69-4.06 9.91h8.12l-4.06-9.91zM258.82 132.22v-30.55h6.72v24.44h15.23v6.11zM213.82 101.67h9.31v6.19h-9.31zM213.82 120.65h-6.71v11.57h6.73v-11.57zM236.81 28.42V16.33h-6.72v30.56h6.72V34.62zM255.92 34.68h-6.71v12.21h6.72zM321.66 132.22l-2.79-6.85h-12.92l-2.79 6.85h-6.85l13.09-30.77h6.2l13.09 30.77h-7.03zm-9.25-22.69-4.06 9.91h8.12l-4.06-9.91zM379.26 132.74c-8.99 0-15.67-6.94-15.67-15.71v-.09c0-8.68 6.55-15.8 15.93-15.8 5.76 0 9.21 1.92 12.05 4.71l-4.28 4.93c-2.36-2.14-4.76-3.45-7.81-3.45-5.15 0-8.86 4.28-8.86 9.51v.09c0 5.24 3.62 9.6 8.86 9.6 3.49 0 5.63-1.4 8.03-3.58l4.28 4.32c-3.15 3.38-6.64 5.47-12.53 5.47M416.26 132.22v-12.26h-12.39v12.26h-6.72v-30.55h6.72v12.09h12.39v-12.09h6.72v30.55zM430.62 101.67h6.72v30.55h-6.72zM460.64 132.44h-5.94l-12.35-30.77h7.42l7.99 21.52 7.98-21.52h7.25zM477.7 132.22v-30.55h23.04v5.98h-16.36v6.2h14.4v5.98h-14.4v6.41h16.58v5.98zM352.34 121.31c3.89-1.44 6.55-4.54 6.55-9.47v-.09c0-6.28-4.32-10.08-11.52-10.08H333.4v14.83h6.72v-8.77h6.68c3.27 0 5.28 1.48 5.28 4.36v.09c0 2.57-1.88 4.32-5.15 4.32h-1.47v6.02l6.49 9.69h7.86l-7.47-10.9z"/><path class="st1" d="M249.2 16.34v12.15h-12.39v6.19h19.11V16.34zM377.32 34.01l-.02-.09h-14.77l-2.51 6.19h12.99l2.76 6.78h7.03zM159.53 76.59l-.02-.09h-14.77l-2.51 6.2h12.99l2.76 6.77h7.03zM207.12 120.65h6.7v-18.98h-16v6.2h9.3zM340.12 116.51h-6.72v15.71h6.72v-9.78h5.28l.06.09v-6.02z"/><path d="m75.36 50.79-.35-.34-1.71-1.7-11.32-11.19-5.16 5.22 11.32 11.19 1.71 1.7.35.34c6.26 6.18 6.32 16.26.13 22.51-6.18 6.25-16.26 6.31-22.51.13l-.35-.34-1.72-1.7-11.31-11.18-5.16 5.22L40.6 81.84l1.71 1.69.35.34c9.12 9.02 23.88 8.93 32.89-.2 9.02-9.11 8.93-23.87-.19-32.88" style="fill:#ffcf37"/><path class="st1" d="M29.26 60.13 18 48.88l-1.71-1.7-.34-.34c-6.22-6.22-6.22-16.3 0-22.51 6.22-6.22 16.29-6.22 22.51 0l.35.34 1.7 1.7 11.26 11.26-11.26 11.25-11.25 11.25m0 10.39 5.19-5.19 11.26-11.26 11.26-11.26 5.19-5.19-5.19-5.19-11.26-11.26-1.71-1.7-.34-.34c-9.07-9.07-23.83-9.07-32.9 0s-9.07 23.83 0 32.9l.34.34 1.71 1.71 11.26 11.26 5.19 5.18z"/><path class="st0" d="m48.18 23.44-5.45 5.43-5.28-5.1 5.65-5.63z"/><path class="st0" d="m70.25 56.1-.34-.34-1.71-1.71-2.81-2.81-8.45 8.45-11.25-11.26-11.26-11.25 11.26-11.26 1.7-1.7.34-.35c6.22-6.22 16.3-6.22 22.51 0 6.1 6.1 6.2 15.92.32 22.16l2.82 2.82 1.71 1.7.34.34c.11.11.21.22.31.33 8.74-9.09 8.65-23.59-.31-32.55-9.07-9.07-23.83-9.07-32.9 0l-.35.34-1.7 1.7-11.24 11.28-5.19 5.19 5.19 5.19L40.5 53.63l11.26 11.26 5.19 5.19 5.19-5.19 8.43-8.43c-.11-.13-.21-.25-.32-.36"/><path class="st3" d="m42.93 73.72-5.34 5.26 5.19 5.22 5.4-5.36z"/><path class="st3" d="M51.74 64.89 40.46 76.17l-1.71 1.71-.34.34c-6.22 6.22-16.29 6.22-22.51 0-5.97-5.97-6.19-15.5-.68-21.76l-2.4-2.4-1.7-1.71-.35-.34c-.25-.25-.47-.52-.71-.78-8.39 9.11-8.19 23.34.65 32.17 9.07 9.07 23.83 9.07 32.9 0l.34-.34 1.71-1.7L56.9 70.11l.02-.02-5.18-5.2zM15.95 46.83l.34.34L18 48.88l2.36 2.36 8.86-8.86-5.19-5.19-.02.02-8.8 8.8c.24.28.48.55.74.82"/></svg>